<?xml version="1.0" standalone="no"?>
<!DOCTYPE svg PUBLIC "-//W3C//DTD SVG 1.1//EN" "http://www.w3.org/Graphics/SVG/1.1/DTD/svg11.dtd" >
<svg xmlns="http://www.w3.org/2000/svg">
<metadata>
This is a custom SVG webfont generated by Font Squirrel.
Copyright   : Copyright asherz08 2011
Designer    : asherz08
Foundry     : httpfontstructcom
Foundry URL : httpwwwfontshopcom
</metadata>
<defs>
<font id="MineCrafter20Regular" horiz-adv-x="1920" >
<font-face units-per-em="2048" ascent="2048" descent="0" />
<missing-glyph horiz-adv-x="768" />
<glyph unicode=" "  horiz-adv-x="768" />
<glyph unicode="&#x09;" horiz-adv-x="768" />
<glyph unicode="&#xa0;" horiz-adv-x="768" />
<glyph unicode="!" horiz-adv-x="896" d="M0 0v384h512v-384h-512zM0 768v1280h512v-1280h-128v-128h-256v128h-128z" />
<glyph unicode="&#x22;" horiz-adv-x="768" d="M0 1920v256h128v-256h-128zM256 1920v256h128v-256h-128z" />
<glyph unicode="'" horiz-adv-x="512" d="M0 1920v256h128v-256h-128z" />
<glyph unicode="+" horiz-adv-x="1152" d="M0 1024v256h256v256h256v-256h256v-256h-256v-256h-256v256h-256z" />
<glyph unicode="," horiz-adv-x="640" d="M0 128v128h256v-256h-128v128h-128z" />
<glyph unicode="-" horiz-adv-x="1152" d="M0 1024v256h768v-256h-768z" />
<glyph unicode="." horiz-adv-x="640" d="M0 0v256h256v-256h-256z" />
<glyph unicode="0" d="M0 0v2048h1536v-2048h-1536zM640 256h256v1536h-256v-1536z" />
<glyph unicode="1" horiz-adv-x="1280" d="M0 1408v384h128v128h128v128h640v-2048h-640v1408h-256z" />
<glyph unicode="2" horiz-adv-x="1792" d="M0 0v640h128v128h128v128h256v128h128v128h128v128h128v256h-128v128h-256v-128h-128v-128h-384v512h256v128h1024v-128h128v-768h-128v-128h-128v-128h-128v-128h-256v-128h-128v-128h768v-512h-1408z" />
<glyph unicode="3" d="M0 0v512h896v256h-896v512h896v256h-896v512h1408v-256h128v-640h-128v-256h128v-640h-128v-256h-1408z" />
<glyph unicode="4" d="M0 384v640h128v256h128v256h128v256h128v128h128v128h768v-1024h128v-640h-128v-384h-896v384h-512zM512 768h384v640h-128v-128h-128v-256h-128v-256z" />
<glyph unicode="5" d="M0 0v512h896v256h-640v256h-256v1024h1536v-512h-896v-256h896v-1024h-256v-256h-1280z" />
<glyph unicode="6" d="M0 256v1536h128v128h128v128h1152v-512h-896v-256h768v-128h128v-128h128v-768h-128v-128h-128v-128h-1024v128h-128v128h-128zM512 512h128v-128h256v128h128v256h-128v128h-256v-128h-128v-256z" />
<glyph unicode="7" d="M0 1536v512h1536v-896h-128v-128h-128v-128h-128v-128h-128v-768h-512v896h128v128h128v128h128v128h128v256h-1024z" />
<glyph unicode="8" d="M0 256v768h128v128h-128v640h128v128h128v128h1024v-128h128v-128h128v-640h-128v-128h128v-768h-128v-128h-128v-128h-1024v128h-128v128h-128zM640 384h256v384h-256v-384zM640 1280h256v384h-256v-384z" />
<glyph unicode="9" d="M0 1024v768h128v128h128v128h1024v-128h128v-128h128v-1536h-128v-128h-128v-128h-1152v512h896v256h-768v128h-128v128h-128zM512 1280h128v-128h256v128h128v256h-128v128h-256v-128h-128v-256z" />
<glyph unicode=":" horiz-adv-x="640" d="M0 640v384h256v-384h-256zM0 1280v384h256v-384h-256z" />
<glyph unicode=";" horiz-adv-x="640" d="M0 768v256h256v-384h-128v128h-128zM0 1280v384h256v-384h-256z" />
<glyph unicode="&#x3c;" horiz-adv-x="1664" d="M0 -256v2560h1280v-3584h-256v128h-128v128h-128v128h-128v128h-128v128h-128v128h-128v128h-128v128h-128z" />
<glyph unicode="=" horiz-adv-x="1152" d="M0 768v256h768v-256h-768zM0 1280v256h768v-256h-768z" />
<glyph unicode="&#x3e;" horiz-adv-x="1664" d="M0 -1280v3584h1280v-2560h-128v-128h-128v-128h-128v-128h-128v-128h-128v-128h-128v-128h-128v-128h-128v-128h-256z" />
<glyph unicode="?" horiz-adv-x="1792" d="M0 1408v512h256v128h1024v-128h128v-768h-128v-128h-128v-128h-128v-128h-128v-128h-256v128h-128v256h128v128h256v512h-512v-256h-384zM512 0v384h512v-384h-512z" />
<glyph unicode="A" d="M0 0v2048h1536v-2048h-640v640h-256v-640h-640zM384 1536h256v-128h-128v-384h128v128h256v-128h128v384h-128v128h256v256h-256v-256h-256v256h-256v-256z" />
<glyph unicode="B" d="M0 0v2048h1280v-256h256v-640h-256v-128h256v-1024h-1536zM640 512h256v256h-256v-256zM640 1280h256v256h-256v-256z" />
<glyph unicode="C" horiz-adv-x="2048" d="M0 256v1536h256v256h1408v-512h-1024v-1024h1024v-512h-1408v256h-256z" />
<glyph unicode="D" d="M0 0v2048h1280v-256h256v-1536h-256v-256h-1280zM640 512h256v1024h-256v-1024z" />
<glyph unicode="E" d="M0 0v2048h1536v-512h-896v-256h896v-512h-896v-256h896v-512h-1536z" />
<glyph unicode="F" d="M0 0v2048h1536v-512h-896v-256h896v-512h-896v-768h-640z" />
<glyph unicode="G" horiz-adv-x="2176" d="M0 256v1536h256v256h1536v-512h-1152v-1024h768v128h-256v384h640v-1024h-1536v256h-256z" />
<glyph unicode="H" horiz-adv-x="2048" d="M0 0v2048h640v-768h384v768h640v-2048h-640v768h-384v-768h-640z" />
<glyph unicode="I" horiz-adv-x="1024" d="M0 0v2048h640v-2048h-640z" />
<glyph unicode="J" d="M0 0v512h896v1024h-512v512h1152v-2048h-1536z" />
<glyph unicode="K" d="M0 0v2048h640v-768h128v256h128v256h128v256h512v-640h-256v-256h-128v-256h128v-256h256v-640h-512v256h-128v256h-128v256h-128v-768h-640z" />
<glyph unicode="L" d="M0 0v2048h640v-1536h896v-512h-1536z" />
<glyph unicode="M" horiz-adv-x="2304" d="M0 0v2048h640v-256h256v-256h128v256h256v256h640v-2048h-640v896h-128v-256h-384v256h-128v-896h-640z" />
<glyph unicode="N" horiz-adv-x="2304" d="M0 0v2048h640v-256h256v-256h256v-256h128v768h640v-2048h-640v256h-256v256h-256v256h-128v-768h-640z" />
<glyph unicode="O" horiz-adv-x="2304" d="M0 256v1536h256v256h1408v-256h256v-1536h-256v-256h-1408v256h-256zM640 512h640v1024h-640v-1024z" />
<glyph unicode="P" d="M0 0v2048h1536v-1280h-896v-768h-640zM640 1280h256v256h-256v-256z" />
<glyph unicode="Q" horiz-adv-x="2304" d="M0 256v1536h256v256h1408v-256h256v-1280h-128v-128h128v-384h-384v128h-128v-128h-1152v256h-256zM640 512h384v256h256v768h-640v-1024z" />
<glyph unicode="R" d="M0 0v2048h1536v-896h-256v-128h256v-1024h-640v768h-256v-768h-640zM640 1280h256v256h-256v-256z" />
<glyph unicode="S" d="M0 0v512h896v256h-896v1280h1536v-512h-896v-256h896v-1280h-1536z" />
<glyph unicode="T" horiz-adv-x="2176" d="M0 1536v512h1792v-512h-512v-1536h-768v1536h-512z" />
<glyph unicode="U" d="M0 0v2048h640v-1536h256v1536h640v-2048h-1536z" />
<glyph unicode="V" d="M0 512v1536h640v-1408h256v1408h640v-1536h-256v-256h-256v-256h-512v256h-256v256h-256z" />
<glyph unicode="W" horiz-adv-x="2304" d="M0 0v2048h640v-896h128v256h384v-256h128v896h640v-2048h-640v256h-256v256h-128v-256h-256v-256h-640z" />
<glyph unicode="X" horiz-adv-x="2176" d="M0 0v512h256v128h256v256h128v256h-128v256h-256v128h-256v512h640v-256h128v-128h256v128h128v256h640v-512h-256v-128h-256v-256h-128v-256h128v-256h256v-128h256v-512h-640v256h-128v128h-256v-128h-128v-256h-640z" />
<glyph unicode="Y" d="M0 768v1280h640v-1280h256v1280h640v-1280h-256v-256h-256v-512h-512v512h-256v256h-256z" />
<glyph unicode="Z" d="M0 0v768h256v256h256v256h384v256h-896v512h1536v-768h-256v-256h-256v-256h-384v-256h896v-512h-1536z" />
<glyph unicode="^" horiz-adv-x="640" d="M0 -1280v3584h256v-3584h-256z" />
<glyph unicode="_" horiz-adv-x="1280" d="M0 0v256h896v-256h-896z" />
<glyph unicode="a" d="M0 0v2048h1536v-2048h-640v640h-256v-640h-640zM640 1152h256v512h-256v-512z" />
<glyph unicode="b" d="M0 0v2048h1280v-256h256v-640h-256v-128h256v-1024h-1536zM640 512h256v256h-256v-256zM640 1280h256v256h-256v-256z" />
<glyph unicode="c" horiz-adv-x="2048" d="M0 256v1536h256v256h1408v-512h-1024v-1024h1024v-512h-1408v256h-256z" />
<glyph unicode="d" d="M0 0v2048h1280v-256h256v-1536h-256v-256h-1280zM640 512h256v1024h-256v-1024z" />
<glyph unicode="e" d="M0 0v2048h1536v-512h-896v-256h896v-512h-896v-256h896v-512h-1536z" />
<glyph unicode="f" d="M0 0v2048h1536v-512h-896v-256h896v-512h-896v-768h-640z" />
<glyph unicode="g" horiz-adv-x="2176" d="M0 256v1536h256v256h1536v-512h-1152v-1024h768v128h-256v384h640v-1024h-1536v256h-256z" />
<glyph unicode="h" horiz-adv-x="2048" d="M0 0v2048h640v-768h384v768h640v-2048h-640v768h-384v-768h-640z" />
<glyph unicode="i" horiz-adv-x="1024" d="M0 0v2048h640v-2048h-640z" />
<glyph unicode="j" d="M0 0v512h896v1024h-512v512h1152v-2048h-1536z" />
<glyph unicode="k" d="M0 0v2048h640v-768h128v256h128v256h128v256h512v-640h-256v-256h-128v-256h128v-256h256v-640h-512v256h-128v256h-128v256h-128v-768h-640z" />
<glyph unicode="l" d="M0 0v2048h640v-1536h896v-512h-1536z" />
<glyph unicode="m" horiz-adv-x="2304" d="M0 0v2048h640v-256h256v-256h128v256h256v256h640v-2048h-640v896h-128v-256h-384v256h-128v-896h-640z" />
<glyph unicode="n" horiz-adv-x="2304" d="M0 0v2048h640v-256h256v-256h256v-256h128v768h640v-2048h-640v256h-256v256h-256v256h-128v-768h-640z" />
<glyph unicode="o" horiz-adv-x="2304" d="M0 256v1536h256v256h1408v-256h256v-1536h-256v-256h-1408v256h-256zM640 512h640v1024h-640v-1024z" />
<glyph unicode="p" d="M0 0v2048h1536v-1280h-896v-768h-640zM640 1280h256v256h-256v-256z" />
<glyph unicode="q" horiz-adv-x="2304" d="M0 256v1536h256v256h1408v-256h256v-1280h-128v-128h128v-384h-384v128h-128v-128h-1152v256h-256zM640 512h384v256h256v768h-640v-1024z" />
<glyph unicode="r" d="M0 0v2048h1536v-896h-256v-128h256v-1024h-640v768h-256v-768h-640zM640 1280h256v256h-256v-256z" />
<glyph unicode="s" d="M0 0v512h896v256h-896v1280h1536v-512h-896v-256h896v-1280h-1536z" />
<glyph unicode="t" horiz-adv-x="2176" d="M0 1536v512h1792v-512h-512v-1536h-768v1536h-512z" />
<glyph unicode="u" d="M0 0v2048h640v-1536h256v1536h640v-2048h-1536z" />
<glyph unicode="v" d="M0 512v1536h640v-1408h256v1408h640v-1536h-256v-256h-256v-256h-512v256h-256v256h-256z" />
<glyph unicode="w" horiz-adv-x="2304" d="M0 0v2048h640v-896h128v256h384v-256h128v896h640v-2048h-640v256h-256v256h-128v-256h-256v-256h-640z" />
<glyph unicode="x" horiz-adv-x="2176" d="M0 0v512h256v128h256v256h128v256h-128v256h-256v128h-256v512h640v-256h128v-128h256v128h128v256h640v-512h-256v-128h-256v-256h-128v-256h128v-256h256v-128h256v-512h-640v256h-128v128h-256v-128h-128v-256h-640z" />
<glyph unicode="y" d="M0 768v1280h640v-1280h256v1280h640v-1280h-256v-256h-256v-512h-512v512h-256v256h-256z" />
<glyph unicode="z" d="M0 0v768h256v256h256v256h384v256h-896v512h1536v-768h-256v-256h-256v-256h-384v-256h896v-512h-1536z" />
<glyph unicode="&#xaa;" d="M0 0v2048h1536v-2048h-640v640h-256v-640h-640zM640 1152h256v512h-256v-512z" />
<glyph unicode="&#xad;" horiz-adv-x="1152" d="M0 1024v256h768v-256h-768z" />
<glyph unicode="&#xb2;" horiz-adv-x="1792" d="M0 0v640h128v128h128v128h256v128h128v128h128v128h128v256h-128v128h-256v-128h-128v-128h-384v512h256v128h1024v-128h128v-768h-128v-128h-128v-128h-128v-128h-256v-128h-128v-128h768v-512h-1408z" />
<glyph unicode="&#xb3;" d="M0 0v512h896v256h-896v512h896v256h-896v512h1408v-256h128v-640h-128v-256h128v-640h-128v-256h-1408z" />
<glyph unicode="&#xb9;" horiz-adv-x="1280" d="M0 1408v384h128v128h128v128h640v-2048h-640v1408h-256z" />
<glyph unicode="&#xba;" horiz-adv-x="2304" d="M0 256v1536h256v256h1408v-256h256v-1536h-256v-256h-1408v256h-256zM640 512h640v1024h-640v-1024z" />
<glyph unicode="&#xc2;" d="M640 2170v3584h256v-3584h-256zM0 0v2048h1536v-2048h-640v640h-256v-640h-640zM384 1536h256v-128h-128v-384h128v128h256v-128h128v384h-128v128h256v256h-256v-256h-256v256h-256v-256z" />
<glyph unicode="&#xca;" d="M640 2170v3584h256v-3584h-256zM0 0v2048h1536v-512h-896v-256h896v-512h-896v-256h896v-512h-1536z" />
<glyph unicode="&#xce;" horiz-adv-x="1024" d="M192 2170v3584h256v-3584h-256zM0 0v2048h640v-2048h-640z" />
<glyph unicode="&#xd4;" horiz-adv-x="2304" d="M832 2170v3584h256v-3584h-256zM0 256v1536h256v256h1408v-256h256v-1536h-256v-256h-1408v256h-256zM640 512h640v1024h-640v-1024z" />
<glyph unicode="&#xdb;" d="M640 2170v3584h256v-3584h-256zM0 0v2048h640v-1536h256v1536h640v-2048h-1536z" />
<glyph unicode="&#xe2;" d="M640 2170v3584h256v-3584h-256zM0 0v2048h1536v-2048h-640v640h-256v-640h-640zM640 1152h256v512h-256v-512z" />
<glyph unicode="&#xea;" d="M640 2170v3584h256v-3584h-256zM0 0v2048h1536v-512h-896v-256h896v-512h-896v-256h896v-512h-1536z" />
<glyph unicode="&#xee;" horiz-adv-x="1024" d="M192 2170v3584h256v-3584h-256zM0 0v2048h640v-2048h-640z" />
<glyph unicode="&#xf4;" horiz-adv-x="2304" d="M832 2170v3584h256v-3584h-256zM0 256v1536h256v256h1408v-256h256v-1536h-256v-256h-1408v256h-256zM640 512h640v1024h-640v-1024z" />
<glyph unicode="&#xfb;" d="M640 2170v3584h256v-3584h-256zM0 0v2048h640v-1536h256v1536h640v-2048h-1536z" />
<glyph unicode="&#x152;" horiz-adv-x="4224" d="M2304 0v2048h1536v-512h-896v-256h896v-512h-896v-256h896v-512h-1536zM0 256v1536h256v256h1408v-256h256v-1536h-256v-256h-1408v256h-256zM640 512h640v1024h-640v-1024z" />
<glyph unicode="&#x153;" horiz-adv-x="4224" d="M2304 0v2048h1536v-512h-896v-256h896v-512h-896v-256h896v-512h-1536zM0 256v1536h256v256h1408v-256h256v-1536h-256v-256h-1408v256h-256zM640 512h640v1024h-640v-1024z" />
<glyph unicode="&#x2c6;" horiz-adv-x="640" d="M0 -1280v3584h256v-3584h-256z" />
<glyph unicode="&#x2000;" horiz-adv-x="2876" />
<glyph unicode="&#x2001;" horiz-adv-x="5754" />
<glyph unicode="&#x2002;" horiz-adv-x="2876" />
<glyph unicode="&#x2003;" horiz-adv-x="5754" />
<glyph unicode="&#x2004;" horiz-adv-x="1918" />
<glyph unicode="&#x2005;" horiz-adv-x="1438" />
<glyph unicode="&#x2006;" horiz-adv-x="958" />
<glyph unicode="&#x2007;" horiz-adv-x="958" />
<glyph unicode="&#x2008;" horiz-adv-x="718" />
<glyph unicode="&#x2009;" horiz-adv-x="1150" />
<glyph unicode="&#x200a;" horiz-adv-x="318" />
<glyph unicode="&#x2010;" horiz-adv-x="1152" d="M0 1024v256h768v-256h-768z" />
<glyph unicode="&#x2011;" horiz-adv-x="1152" d="M0 1024v256h768v-256h-768z" />
<glyph unicode="&#x2012;" horiz-adv-x="1152" d="M0 1024v256h768v-256h-768z" />
<glyph unicode="&#x2013;" horiz-adv-x="1024" d="M0 1024v256h640v-256h-640z" />
<glyph unicode="&#x2014;" horiz-adv-x="2048" d="M0 1024v256h1664v-256h-1664z" />
<glyph unicode="&#x2018;" horiz-adv-x="640" d="M0 1792v256h128v-128h128v-128h-256z" />
<glyph unicode="&#x2019;" horiz-adv-x="640" d="M0 2048v128h256v-256h-128v128h-128z" />
<glyph unicode="&#x201c;" horiz-adv-x="1024" d="M0 1792v256h128v-128h128v-128h-256zM384 1792v256h128v-128h128v-128h-256z" />
<glyph unicode="&#x201d;" horiz-adv-x="1024" d="M0 1920v128h256v-256h-128v128h-128zM384 1920v128h256v-256h-128v128h-128z" />
<glyph unicode="&#x2026;" d="M1280 0v256h256v-256h-256zM640 0v256h256v-256h-256zM0 0v256h256v-256h-256z" />
<glyph unicode="&#x202f;" horiz-adv-x="1150" />
<glyph unicode="&#x2039;" horiz-adv-x="1664" d="M0 -256v2560h1280v-3584h-256v128h-128v128h-128v128h-128v128h-128v128h-128v128h-128v128h-128v128h-128z" />
<glyph unicode="&#x203a;" horiz-adv-x="1664" d="M0 -1280v3584h1280v-2560h-128v-128h-128v-128h-128v-128h-128v-128h-128v-128h-128v-128h-128v-128h-128v-128h-256z" />
<glyph unicode="&#x205f;" horiz-adv-x="1438" />
<glyph unicode="&#x2122;" horiz-adv-x="4480" d="M2176 0v2048h640v-256h256v-256h128v256h256v256h640v-2048h-640v896h-128v-256h-384v256h-128v-896h-640zM0 1536v512h1792v-512h-512v-1536h-768v1536h-512z" />
<glyph unicode="&#xe000;" horiz-adv-x="2050" d="M0 2050h2050v-2050h-2050v2050z" />
<glyph unicode="&#xfb01;" horiz-adv-x="2944" d="M1920 0v2048h640v-2048h-640zM0 0v2048h1536v-512h-896v-256h896v-512h-896v-768h-640z" />
<glyph unicode="&#xfb02;" horiz-adv-x="3840" d="M1920 0v2048h640v-1536h896v-512h-1536zM0 0v2048h1536v-512h-896v-256h896v-512h-896v-768h-640z" />
<glyph unicode="&#xfb03;" horiz-adv-x="4864" d="M3840 0v2048h640v-2048h-640zM1920 0v2048h1536v-512h-896v-256h896v-512h-896v-768h-640zM0 0v2048h1536v-512h-896v-256h896v-512h-896v-768h-640z" />
<glyph unicode="&#xfb04;" horiz-adv-x="5760" d="M3840 0v2048h640v-1536h896v-512h-1536zM1920 0v2048h1536v-512h-896v-256h896v-512h-896v-768h-640zM0 0v2048h1536v-512h-896v-256h896v-512h-896v-768h-640z" />
</font>
</defs>
</svg>
